:FULLY-SPECIFIED
:FORCE-ALL-JOINTS-BE-3DOF
:DEGREES
612
root -4.29494 15.7669 -40.5009 358.018 -75.4898 368.539
lfemur -7.28002 13.5213 -16.0415
ltibia 43.2536 0 0
lfoot -21.7602 29.6037 0
ltoes -23.5767 0 0
rfemur -43.0655 -33.8063 20.0362
rtibia 83.569 0 0
rfoot -15.8916 -20.4179 0
rtoes 2.14773 0 0
lowerback 10.7562 5.07083 -6.64394
upperback -2.65684 5.67835 -1.36939
thorax -9.41224 3.05502 1.16628
lowerneck 1.79501 -10.774 -11.7619
upperneck -0.642757 -14.6778 11.8941
head 1.27565 -7.3884 5.11681
lclavicle -1.99259e-14 2.57632e-14 0
lhumerus -73.2368 -24.6751 105.575
lradius 102.438 0 0
lwrist 55.7387 0 0
lhand 6.03496 54.9424 0
lfingers 7.12502 0 0
lthumb 31.3372 82.0608 0
rclavicle -1.99259e-14 2.57632e-14 0
rhumerus 27.5385 23.0227 -44.082
rradius 113.064 0 0
rwrist -23.9772 0 0
rhand -17.3969 -28.3181 0
rfingers 7.12502 0 0
rthumb 8.86109 -58.1999 0
613
root -4.31769 15.7632 -40.4793 358.119 -76.2913 368.777
lfemur -6.93961 13.757 -16.203
ltibia 43.1115 0 0
lfoot -22.0508 30.4108 0
ltoes -23.79 0 0
rfemur -42.5219 -34.7165 21.0552
rtibia 84.2554 0 0
rfoot -17.4623 -21.8451 0
rtoes 1.32608 0 0
lowerback 10.2011 5.1492 -6.83002
upperback -2.86239 5.76753 -1.49118
thorax -9.32529 3.11128 1.15626
lowerneck 1.62136 -10.706 -11.725
upperneck -0.417693 -14.5838 12.0264
head 1.36205 -7.33745 5.13588
lclavicle -3.06252e-14 2.49261e-14 0
lhumerus -74.3519 -24.5969 105.936
lradius 102.342 0 0
lwrist 55.9025 0 0
lhand 3.92287 54.0764 0
lfingers 7.12502 0 0
lthumb 29.3249 81.5598 0
rclavicle -3.06252e-14 2.49261e-14 0
rhumerus 27.9837 20.9993 -44.1588
rradius 112.344 0 0
rwrist -24.2203 0 0
rhand -18.9895 -28.1284 0
rfingers 7.12502 0 0
rthumb 7.32779 -58.1175 0
614
root -4.34044 15.7594 -40.4578 357.802 -77.0201 369.434
lfemur -6.30737 13.987 -16.3147
ltibia 42.6811 0 0
lfoot -22.3647 31.261 0
ltoes -24.086 0 0
rfemur -42.1547 -35.4629 21.8508
rtibia 84.6874 0 0
rfoot -18.7823 -23.0422 0
rtoes 0.58751 0 0
lowerback 9.6624 5.23177 -7.0628
upperback -3.04886 5.85104 -1.62372
thorax -9.22928 3.16704 1.16129
lowerneck 1.47694 -10.6687 -11.7083
upperneck -0.231989 -14.5315 12.1701
head 1.43764 -7.30779 5.16182
lclavicle -4.06938e-14 2.38299e-14 0
lhumerus -75.7241 -24.4458 106.361
lradius 102.215 0 0
lwrist 56.3616 0 0
lhand 1.74028 53.4153 0
lfingers 7.12502 0 0
lthumb 27.2484 81.3007 0
rclavicle -4.06938e-14 2.38299e-14 0
rhumerus 28.1835 19.3624 -44.249
rradius 111.475 0 0
rwrist -24.2243 0 0
rhand -20.3053 -27.9055 0
rfingers 7.12502 0 0
rthumb 6.06074 -57.9776 0
615
root -4.36319 15.7557 -40.4362 357.15 -77.6819 370.421
lfemur -5.44357 14.2084 -16.3831
ltibia 42.0197 0 0
lfoot -22.6921 32.1349 0
ltoes -24.4469 0 0
rfemur -41.933 -36.0552 22.4472
rtibia 84.8774 0 0
rfoot -19.8765 -24.0329 0
rtoes -0.0803058 0 0
lowerback 9.14356 5.31641 -7.32917
upperback -3.21712 5.92881 -1.76264
thorax -9.12644 3.22158 1.17854
lowerneck 1.35771 -10.6563 -11.7076
upperneck -0.0826585 -14.5131 12.3206
head 1.5028 -7.2955 5.19283
lclavicle -5.01382e-14 2.25053e-14 0
lhumerus -77.2852 -24.2354 106.834
lradius 102.064 0 0
lwrist 57.0508 0 0
lhand -0.480992 52.9261 0
lfingers 7.12502 0 0
lthumb 25.1374 81.2398 0
rclavicle -5.01382e-14 2.25053e-14 0
rhumerus 28.1723 18.073 -44.3542
rradius 110.465 0 0
rwrist -24.0375 0 0
rhand -21.3732 -27.6637 0
rfingers 7.12502 0 0
rthumb 5.03189 -57.7966 0
616
root -4.38593 15.752 -40.4146 356.252 -78.2823 371.648
lfemur -4.40846 14.4186 -16.4145
ltibia 41.1845 0 0
lfoot -23.0231 33.0131 0
ltoes -24.8551 0 0
rfemur -41.8263 -36.5028 22.8682
rtibia 84.8375 0 0
rfoot -20.7699 -24.8406 0
rtoes -0.689703 0 0
lowerback 8.64789 5.40101 -7.61604
upperback -3.36805 6.00079 -1.90354
thorax -9.01899 3.27419 1.20522
lowerneck 1.25963 -10.6634 -11.719
upperneck 0.0332837 -14.521 12.4733
head 1.55792 -7.29663 5.22713
lclavicle -5.89651e-14 2.09828e-14 0
lhumerus -78.9671 -23.9794 107.337
lradius 101.897 0 0
lwrist 57.9046 0 0
lhand -2.70914 52.5761 0
lfingers 7.12502 0 0
lthumb 23.0216 81.3331 0
rclavicle -5.89651e-14 2.09828e-14 0
rhumerus 27.9849 17.0922 -44.4758
rradius 109.32 0 0
rwrist -23.7082 0 0
rhand -22.2225 -27.4171 0
rfingers 7.12502 0 0
rthumb 4.21324 -57.5912 0
617
root -4.40868 15.7483 -40.3931 355.194 -78.8266 373.026
lfemur -3.26229 14.6148 -16.4155
ltibia 40.233 0 0
lfoot -23.3479 33.8763 0
ltoes -25.2928 0 0
rfemur -41.8038 -36.8152 23.1381
rtibia 84.5801 0 0
rfoot -21.4875 -25.4889 0
rtoes -1.25301 0 0
lowerback 8.17875 5.48343 -7.9103
upperback -3.50254 6.0669 -2.04202
thorax -8.90917 3.32417 1.23852
lowerneck 1.17864 -10.6844 -11.7382
upperneck 0.118824 -14.5475 12.6235
head 1.60336 -7.30727 5.26294
lclavicle -6.71812e-14 1.92932e-14 0
lhumerus -80.7014 -23.6916 107.853
lradius 101.722 0 0
lwrist 58.8576 0 0
lhand -4.91236 52.3325 0
lfingers 7.12502 0 0
lthumb 20.9306 81.5367 0
rclavicle -6.71812e-14 1.92932e-14 0
rhumerus 27.6559 16.381 -44.6152
rradius 108.047 0 0
rwrist -23.2847 0 0
rhand -22.8823 -27.1799 0
rfingers 7.12502 0 0
rthumb 3.57675 -57.3777 0
618
root -4.43143 15.7446 -40.3715 354.062 -79.3206 374.465
lfemur -2.06531 14.7943 -16.3923
ltibia 39.2225 0 0
lfoot -23.6566 34.7049 0
ltoes -25.7422 0 0
rfemur -41.8347 -37.0021 23.2808
rtibia 84.1172 0 0
rfoot -22.0542 -26.0014 0
rtoes -1.78257 0 0
lowerback 7.73949 5.56155 -8.19884
upperback -3.62146 6.12708 -2.17369
thorax -8.7992 3.37079 1.27563
lowerneck 1.11069 -10.7136 -11.7612
upperneck 0.176949 -14.5847 12.7665
head 1.63952 -7.32348 5.29846
lclavicle -7.4793e-14 1.7467e-14 0
lhumerus -82.4201 -23.3855 108.363
lradius 101.547 0 0
lwrist 59.8445 0 0
lhand -7.05883 52.1622 0
lfingers 7.12502 0 0
lthumb 18.8939 81.8066 0
rclavicle -7.4793e-14 1.7467e-14 0
rhumerus 27.2202 15.9004 -44.774
rradius 106.654 0 0
rwrist -22.8154 0 0
rhand -23.3816 -26.9664 0
rfingers 7.12502 0 0
rthumb 3.0944 -57.1726 0
